<?xml version="1.0" encoding="utf-8"?>
<!-- Generator: Adobe Illustrator 23.0.6, SVG Export Plug-In . SVG Version: 6.00 Build 0)  -->
<svg version="1.1" id="Layer_3" xmlns="http://www.w3.org/2000/svg" xmlns:xlink="http://www.w3.org/1999/xlink" x="0px" y="0px"
	 viewBox="0 0 89.6 92" style="enable-background:new 0 0 89.6 92;" xml:space="preserve">
<style type="text/css">
	.st0{fill-rule:evenodd;clip-rule:evenodd;fill:#4285F4;}
	.st1{fill-rule:evenodd;clip-rule:evenodd;fill:#34A853;}
	.st2{fill-rule:evenodd;clip-rule:evenodd;fill:#FBBC05;}
	.st3{fill-rule:evenodd;clip-rule:evenodd;fill:#EA4335;}
	.st4{fill:none;}
</style>
<g id="logo_googleg_48dp_1_" transform="translate(15.000000, 15.000000)">
	<path id="Shape_1_" class="st0" d="M66.1,30.9c0-2.6-0.2-5.1-0.7-7.5H30.7v14.3h19.9c-0.9,4.6-3.5,8.5-7.4,11.1v9.3h11.9
		C62.1,51.6,66.1,42.2,66.1,30.9L66.1,30.9z"/>
	<path class="st1" d="M30.7,67c10,0,18.3-3.3,24.4-8.9l-11.9-9.3c-3.3,2.2-7.5,3.5-12.5,3.5c-9.6,0-17.7-6.5-20.6-15.2H-2.3v9.6
		C3.7,58.7,16.2,67,30.7,67L30.7,67z"/>
	<path class="st2" d="M10,37.1c-0.7-2.2-1.2-4.6-1.2-7s0.4-4.8,1.2-7v-9.6H-2.3c-2.5,5-3.9,10.6-3.9,16.6s1.4,11.6,3.9,16.6L10,37.1
		L10,37.1z"/>
	<path class="st3" d="M30.7,7.9c5.4,0,10.3,1.9,14.1,5.5L55.3,2.8c-6.4-6-14.7-9.6-24.7-9.6c-14.4,0-26.9,8.3-33,20.3L10,23.1
		C12.9,14.4,21,7.9,30.7,7.9L30.7,7.9z"/>
	<path class="st4" d="M-6.3-6.8h73.8V67H-6.3V-6.8z"/>
</g>
</svg>
