<?xml version="1.0" encoding="utf-8"?>
<!-- Generator: Adobe Illustrator 23.0.6, SVG Export Plug-In . SVG Version: 6.00 Build 0)  -->
<svg version="1.1" id="Layer_3" xmlns="http://www.w3.org/2000/svg" xmlns:xlink="http://www.w3.org/1999/xlink" x="0px" y="0px"
	 viewBox="0 0 89.6 92" style="enable-background:new 0 0 89.6 92;" xml:space="preserve">
<style type="text/css">
	.st0{fill:#1877F2;}
	.st1{fill:#FFFFFF;}
</style>
<g>
	<path class="st0" d="M83.7,44.6c0-21.4-17.4-38.8-38.8-38.8S6.2,23.2,6.2,44.6C6.2,64,20.3,80,38.9,82.9V55.8H29V44.6h9.9V36
		c0-9.7,5.8-15.1,14.6-15.1c4.3,0,8.6,0.8,8.6,0.8v9.5h-4.8c-4.8,0-6.4,3-6.4,6.1v7.3h10.8l-1.7,11.2h-9v27.1
		C69.5,80,83.7,64,83.7,44.6"/>
	<path class="st1" d="M60,55.8l1.7-11.2H50.9v-7.3c0-3.1,1.6-6.1,6.4-6.1h4.8v-9.5c0,0-4.4-0.8-8.6-0.8c-8.9,0-14.6,5.4-14.6,15.1
		v8.5H29v11.2h9.9v27.1c1.9,0.3,4,0.5,6,0.5s4.1-0.2,6-0.5V55.8H60z"/>
</g>
</svg>
